<?xml version="1.0" encoding="UTF-8"?>
<svg class="h-5 w-5 text-gray-700" height="20px" width="20px" xmlns="http://www.w3.org/2000/svg" x="0px" y="0px" viewBox="0 0 20 20" fill="currentColor"><path d="M8.58578644,10 L1,2.41421356 C0.609475708,2.02368927 0.609475708,1.39052429 1,1 C1.39052429,0.609475708 2.02368927,0.609475708 2.41421356,1 L10,8.58578644 L17.5857864,1 C17.9763107,0.609475708 18.6094757,0.609475708 19,1 C19.3905243,1.39052429 19.3905243,2.02368927 19,2.41421356 L11.4142136,10 L19,17.5857864 C19.3905243,17.9763107 19.3905243,18.6094757 19,19 C18.6094757,19.3905243 17.9763107,19.3905243 17.5857864,19 L10,11.4142136 L2.41421356,19 C2.02368927,19.3905243 1.39052429,19.3905243 1,19 C0.609475708,18.6094757 0.609475708,17.9763107 1,17.5857864 L8.58578644,10 Z" fill="currentColor"></path></svg>
