<?xml version="1.0" encoding="UTF-8"?>
<svg width="20px" height="20px" viewBox="0 0 20 20" version="1.1" xmlns="http://www.w3.org/2000/svg" xmlns:xlink="http://www.w3.org/1999/xlink">
    <title>B797347F-C455-4E3E-859A-B08660A622F8</title>
    <g id="Symbols" stroke="none" stroke-width="1" fill="none" fill-rule="evenodd">
        <g id="Icons/Actions/closeAllFaults" fill="#676F7C">
            <path d="M0.833333333,5 C1.29166667,5 1.66666667,5.375 1.66666667,5.83333333 L1.66666667,17.5 C1.66666667,17.9583333 2.04166667,18.3333333 2.5,18.3333333 L14.1666667,18.3333333 C14.625,18.3333333 15,18.7083333 15,19.1666667 C15,19.625 14.625,20 14.1666667,20 L1.66666667,20 C0.75,20 0,19.25 0,18.3333333 L0,5.83333333 C0,5.375 0.375,5 0.833333333,5 Z M18.1037037,-2.0349944e-11 C19.1509992,-2.0349944e-11 20,0.849000771 20,1.8962963 L20,14.1037037 C20,15.1509992 19.1509992,16 18.1037037,16 L5.8962963,16 C4.84900077,16 4,15.1509992 4,14.1037037 L4,1.8962963 C4,0.849000771 4.84900077,-2.0349944e-11 5.8962963,-2.0349944e-11 L18.1037037,-2.0349944e-11 Z M16.7538608,3.2461392 C16.4256752,2.9179536 15.8935812,2.9179536 15.5653956,3.2461392 L15.5653956,3.2461392 L11.999652,6.810806 L8.4346044,3.2461392 C8.1064188,2.9179536 7.5743248,2.9179536 7.2461392,3.2461392 C6.9179536,3.5743248 6.9179536,4.1064188 7.2461392,4.4346044 L7.2461392,4.4346044 L10.810806,7.99965197 L7.2461392,11.5653956 C6.9179536,11.8935812 6.9179536,12.4256752 7.2461392,12.7538608 C7.5743248,13.0820464 8.1064188,13.0820464 8.4346044,12.7538608 L8.4346044,12.7538608 L11.999652,9.18737745 L15.5653956,12.7538608 C15.8935812,13.0820464 16.4256752,13.0820464 16.7538608,12.7538608 C17.0820464,12.4256752 17.0820464,11.8935812 16.7538608,11.5653956 L16.7538608,11.5653956 L13.1873775,7.99965197 L16.7538608,4.4346044 C17.0820464,4.1064188 17.0820464,3.5743248 16.7538608,3.2461392 Z" id="Combined-Shape"></path>
        </g>
    </g>
</svg>