<?xml version="1.0" encoding="UTF-8"?>
<svg height="20px" width="20px" xmlns="http://www.w3.org/2000/svg" x="0px" y="0px" viewBox="0 0 20 20" fill="currentColor">
	<path d="M12.5911007,12.5911007 C14.7389843,10.4432171 14.7209116,6.94273702 12.5507342,4.77255963 C10.3805568,2.60238223 6.88007675,2.58430954 4.73219314,4.73219314 C2.58430954,6.88007675 2.60238223,10.3805568 4.77255963,12.5507342 C6.94273702,14.7209116 10.4432171,14.7389843 12.5911007,12.5911007 Z M13.2656716,14.6798851 C10.3217555,16.9252269 6.07543964,16.6820414 3.35834606,13.9649478 C0.399013249,11.005615 0.374368671,6.23223305 3.30330086,3.30330086 C6.23223305,0.374368671 11.005615,0.399013249 13.9649478,3.35834606 C16.6820414,6.07543964 16.9252269,10.3217555 14.6798851,13.2656716 L18.1525433,16.7383297 C18.5430676,17.128854 18.5430676,17.762019 18.1525433,18.1525433 L18.1525433,18.1525433 C17.762019,18.5430676 17.128854,18.5430676 16.7383297,18.1525433 L13.2656716,14.6798851 Z"></path>
</svg>
